<svg xmlns="http://www.w3.org/2000/svg" width="16" height="11" fill="none"><path fill="#444" d="M15.6671 1.67464a1.8574 1.8574 0 0 0-.5107-.84667 2.03364 2.03364 0 0 0-.892-.49466c-1.252-.33-6.26799-.33-6.26799-.33a51.08278 51.08278 0 0 0-6.26.31333 2.10665 2.10665 0 0 0-.892.50667c-.24667.23733-.42533.53-.51867.85066a19.39333 19.39333 0 0 0-.32533 3.66267 19.35838 19.35838 0 0 0 .32533 3.66267c.09134.31933.26934.61066.51667.846.24733.23529.55533.40529.894.49529 1.26867.3294 6.26.3294 6.26.3294a51.1873 51.1873 0 0 0 6.26799-.3134c.3345-.0864.6415-.2566.892-.49463a1.85323 1.85323 0 0 0 .51-.84666 18.91844 18.91844 0 0 0 .334-3.66334 17.72082 17.72082 0 0 0-.3333-3.678v.00067ZM6.40174 7.61931V3.05464l4.17336 2.28267-4.17336 2.282Z"/></svg>