<svg width="12" height="13" fill="none" xmlns="http://www.w3.org/2000/svg"><path d="M2.408 13a.454.454 0 0 1-.306-.108.454.454 0 0 1-.108-.306v-2.304H.608a.454.454 0 0 1-.306-.108.454.454 0 0 1-.108-.306v-.414a.39.39 0 0 1 .108-.288.417.417 0 0 1 .306-.126h1.386V8.014H.608a.454.454 0 0 1-.306-.108.454.454 0 0 1-.108-.306v-.612A.39.39 0 0 1 .302 6.7a.417.417 0 0 1 .306-.126h1.386V.832c0-.132.036-.234.108-.306A.417.417 0 0 1 2.408.4H6.98c.888 0 1.656.144 2.304.432.66.288 1.17.72 1.53 1.296.36.564.54 1.272.54 2.124 0 .84-.18 1.536-.54 2.088-.36.552-.87.972-1.53 1.26-.648.276-1.416.414-2.304.414H3.794V9.04h3.474a.36.36 0 0 1 .288.126.36.36 0 0 1 .126.288v.414c0 .12-.042.222-.126.306a.39.39 0 0 1-.288.108H3.794v2.304c0 .12-.042.222-.126.306-.072.072-.174.108-.306.108h-.954Zm1.368-6.426H6.89c.888 0 1.554-.198 1.998-.594.444-.396.666-.972.666-1.728 0-.744-.216-1.32-.648-1.728-.432-.408-1.104-.612-2.016-.612H3.776v4.662Z" fill="#444"/></svg>